<svg id="about-picture" xmlns="http://www.w3.org/2000/svg" class="berlin-illustration" height="auto" viewBox="0 0 700 505" xmlns:xlink="http://www.w3.org/1999/xlink"><style type="text/css">.cloud-frontundefined.sunundefined.cloud-backundefined</style><g xmlns="http://www.w3.org/2000/svg" fill="none" fill-rule="evenodd">
<g transform="translate(446 48)" class="cloud-back">

<path fill="#FBFDFC" d="M6.576,15.756 C7.715,11.539 11.462,8.405 15.984,8.187 C18.35,4.065 22.785,1.282 27.877,1.282 C35.451,1.282 41.59,7.422 41.59,14.995 C41.59,15.386 41.564,15.77 41.531,16.153 C42.297,15.838 43.134,15.662 44.013,15.662 C47.615,15.662 50.536,18.582 50.536,22.185 C50.536,25.787 47.615,28.708 44.013,28.708 L8.321,28.708 L8.321,28.672 C8.098,28.695 7.871,28.708 7.641,28.708 C4.039,28.708 1.117,25.787 1.117,22.185 C1.117,18.946 3.481,16.266 6.576,15.756" class="cloud-small"></path>
</g>
</g>
</svg>
