<svg id="about-picture" xmlns="http://www.w3.org/2000/svg" class="berlin-illustration" height="auto" viewBox="0 0 700 505" xmlns:xlink="http://www.w3.org/1999/xlink"><style type="text/css">.cloud-frontundefined.sunundefined.cloud-backundefined</style><g xmlns="http://www.w3.org/2000/svg" fill="none" fill-rule="evenodd">
          <g transform="translate(0 241)" class="cloud-front">
          <path fill="#1A232C" d="M87.602,29 L87.602,28 C87.326,28.001 87.103,28.024 86.927,28.033 L86.979,29.031 L87.947,28.78 C85.741,20.282 78.041,14.002 68.852,14 C67.858,14 66.904,14.096 65.98,14.231 L66.125,15.22 L67.019,14.772 C62.626,6.015 53.567,0.001 43.102,0 C29.041,0.002 17.524,10.848 16.443,24.632 L17.44,24.71 L17.606,23.724 C16.803,23.589 15.969,23.5 15.102,23.5 C6.817,23.501 0.102,30.215 0.102,38.5 C0.102,46.785 6.817,53.499 15.102,53.5 L87.602,53.5 C94.644,53.499 100.351,47.792 100.352,40.75 C100.351,33.708 94.644,28.001 87.602,28 L87.602,30 C90.573,30 93.254,31.202 95.203,33.149 C97.15,35.097 98.351,37.778 98.352,40.75 C98.351,43.722 97.15,46.403 95.203,48.351 C93.254,50.298 90.573,51.5 87.602,51.5 L15.102,51.5 C11.509,51.5 8.265,50.046 5.909,47.692 C3.555,45.337 2.102,42.093 2.102,38.5 C2.102,34.907 3.555,31.663 5.909,29.308 C8.265,26.954 11.509,25.5 15.102,25.5 C15.831,25.5 16.553,25.575 17.273,25.697 C17.551,25.743 17.832,25.672 18.055,25.499
          C18.277,25.325 18.414,25.07 18.436,24.789 C19.436,12.04 30.094,1.998 43.102,2 C52.786,1.999 61.163,7.564 65.231,15.669 C65.425,16.055 65.842,16.272 66.27,16.21 C67.132,16.084 67.988,16 68.852,16 C77.108,15.998 84.027,21.647 86.011,29.283 C86.13,29.741 86.557,30.054 87.031,30.03 C87.27,30.017 87.457,29.999 87.602,30 L87.602,29" transform="translate(38 36)"></path>
</g>
</g>
</svg>
